<?xml version="1.0" standalone="no"?>
<!DOCTYPE svg PUBLIC "-//W3C//DTD SVG 20010904//EN"
 "http://www.w3.org/TR/2001/REC-SVG-20010904/DTD/svg10.dtd">

<!-- Icon created by bgtti. Github: https://github.com/bgtti -->
<!-- License: public domain -->

<svg 
    version="1.0" 
    xmlns="http://www.w3.org/2000/svg"
    width="470.000000pt" 
    height="470.000000pt" 
    viewBox="0 0 470.000000 470.000000"
    preserveAspectRatio="xMidYMid meet">

    <g 
        transform="translate(0.000000,470.000000) scale(0.100000,-0.100000)"
        fill="#000000" 
        stroke="none">

        <!-- Background color/shape of the entire icon -->
        <!-- Uncomment the path bellow and adjust the element's fill color to change the whole element's background -->
        <path 
            d="M2298 4643 c-14 -16 -40 -53 -58 -83 -17 -30 -44 -75 -60 -100 -16
            -25 -45 -72 -65 -105 -20 -33 -49 -80 -65 -105 -16 -25 -34 -54 -40 -65 -6
            -11 -24 -40 -40 -65 -16 -25 -39 -61 -50 -80 -11 -19 -29 -48 -40 -65 -11 -16
            -29 -46 -40 -65 -11 -19 -34 -55 -50 -80 -16 -25 -34 -54 -40 -65 -6 -11 -22
            -38 -35 -60 l-24 -40 -653 -5 -653 -5 -57 -28 c-77 -38 -134 -96 -171 -175
            l-32 -67 -3 -1515 c-3 -1682 -7 -1572 64 -1677 42 -61 83 -94 162 -131 l57
            -27 1875 -3 c1341 -2 1894 0 1940 8 127 22 220 93 278 210 l27 55 0 1545 0
            1545 -29 59 c-37 76 -101 140 -174 174 l-57 27 -607 3 -607 3 -28 39 c-15 21
            -41 62 -58 90 -16 29 -48 80 -70 115 -22 34 -51 81 -65 104 -14 23 -43 71 -65
            105 -22 35 -51 82 -65 105 -14 23 -43 71 -65 106 -22 36 -51 83 -65 106 -14
            24 -40 65 -59 93 -18 28 -42 68 -52 88 -23 45 -45 58 -96 58 -30 0 -45 -7 -65
            -27z "
            fill = "#376073"
        />

        <!-- Background color of the triangle -->
        <!-- Uncomment the path bellow and adjust the element's fill color to change the triangle's background -->
        <path 
            d = "M700 1800 L2400 4600 L4000 1800 z" 
            stroke = "#DB9A02" 
            stroke-width = "3" 
            fill = "#DB9A02"
        />

        <path 
            d="M2298 4643 c-14 -16 -40 -53 -58 -83 -17 -30 -44 -75 -60 -100 -16
            -25 -45 -72 -65 -105 -20 -33 -49 -80 -65 -105 -16 -25 -34 -54 -40 -65 -6
            -11 -24 -40 -40 -65 -16 -25 -39 -61 -50 -80 -11 -19 -29 -48 -40 -65 -11 -16
            -29 -46 -40 -65 -11 -19 -34 -55 -50 -80 -16 -25 -34 -54 -40 -65 -6 -11 -22
            -38 -35 -60 l-24 -40 -653 -5 -653 -5 -57 -28 c-77 -38 -134 -96 -171 -175
            l-32 -67 -3 -1515 c-3 -1682 -7 -1572 64 -1677 42 -61 83 -94 162 -131 l57
            -27 1875 -3 c1341 -2 1894 0 1940 8 127 22 220 93 278 210 l27 55 0 1545 0
            1545 -29 59 c-37 76 -101 140 -174 174 l-57 27 -607 3 -607 3 -28 39 c-15 21
            -41 62 -58 90 -16 29 -48 80 -70 115 -22 34 -51 81 -65 104 -14 23 -43 71 -65
            105 -22 35 -51 82 -65 105 -14 23 -43 71 -65 106 -22 36 -51 83 -65 106 -14
            24 -40 65 -59 93 -18 28 -42 68 -52 88 -23 45 -45 58 -96 58 -30 0 -45 -7 -65
            -27z m132 -320 c11 -16 38 -55 59 -88 134 -213 191 -307 191 -310 0 -3 16 -27
            35 -54 19 -26 35 -51 35 -54 0 -2 68 -114 151 -248 83 -134 159 -256 168 -271
            9 -14 32 -52 51 -83 19 -32 44 -72 55 -91 11 -18 49 -79 85 -136 36 -56 70
            -110 75 -120 12 -21 222 -362 367 -596 36 -58 56 -91 106 -176 18 -30 37 -58
            43 -61 17 -11 9 -43 -17 -74 l-26 -31 -1431 0 -1431 0 -28 27 c-42 41 -38 62
            42 191 77 125 123 198 189 304 35 57 107 173 159 258 52 85 126 206 166 268
            39 63 80 129 91 147 23 39 79 130 98 159 33 52 109 176 195 316 166 270 198
            323 256 415 60 96 108 175 141 231 48 81 73 104 115 104 30 0 43 -6 60 -27z
            m-920 -930 c-6 -10 -19 -31 -30 -48 -11 -16 -29 -46 -40 -65 -11 -19 -26 -44
            -33 -55 -6 -10 -32 -51 -56 -90 -24 -38 -52 -82 -62 -97 -11 -15 -19 -30 -19
            -33 0 -5 -66 -110 -109 -175 -10 -14 -20 -33 -24 -42 -3 -10 -10 -18 -14 -17
            -8 0 -525 614 -531 631 -2 4 206 8 463 8 441 0 465 -1 455 -17z m2598 8 c-1
            -5 -118 -146 -259 -313 l-255 -305 -16 26 c-8 14 -38 63 -67 109 -28 46 -51
            85 -51 87 0 2 -15 26 -32 52 -37 54 -98 153 -98 159 0 2 -16 27 -35 55 -20 27
            -40 60 -45 72 -6 12 -17 32 -26 45 l-16 22 452 0 c260 0 450 -4 448 -9z
            m-3414 -433 c174 -208 316 -380 316 -383 0 -2 -17 -31 -37 -62 -21 -32 -40
            -63 -43 -68 -3 -6 -29 -49 -58 -95 -66 -106 -61 -98 -123 -200 -29 -47 -76
            -124 -105 -172 -67 -109 -71 -148 -20 -202 l34 -36 528 0 528 1 37 -43 37 -43
            -718 -665 c-395 -365 -723 -666 -729 -668 -6 -2 -15 8 -21 23 -7 18 -9 521 -8
            1509 3 1262 5 1485 17 1500 18 21 -23 65 365 -396z m3645 -1111 c-1 -810 -4
            -1483 -8 -1496 -4 -14 -11 -26 -16 -28 -9 -3 -1416 1280 -1423 1297 -2 4 19
            33 45 64 l48 57 550 0 c606 -1 567 -5 608 61 23 37 22 47 -15 104 -17 27 -39
            63 -48 79 -9 17 -47 80 -85 140 -37 61 -79 128 -92 150 -13 22 -42 69 -65 105
            -101 162 -129 212 -125 223 3 7 34 46 69 87 35 41 171 202 302 358 130 155
            241 280 247 277 5 -4 9 -568 8 -1478z m-1631 -125 c-41 -58 -353 -422 -360
            -420 -5 2 -269 313 -357 421 -13 16 10 17 358 17 359 0 372 -1 359 -18z m-620
            -425 c214 -255 216 -257 258 -257 48 0 75 16 109 63 45 63 297 362 305 362 9
            0 1344 -1224 1348 -1236 2 -5 -724 -9 -1783 -9 -1064 0 -1785 4 -1783 9 4 11
            1360 1270 1369 1270 3 1 83 -90 177 -202z"
        />
        

        <!-- Question mark: upper part -->

        <path 
            d="M2292 3531 c-65 -21 -115 -67 -138 -127 -15 -39 -16 -53 -5 -92 6
            -26 18 -94 25 -152 8 -58 19 -125 24 -150 6 -25 13 -76 17 -115 3 -38 10 -86
            15 -105 5 -19 14 -73 20 -119 5 -47 13 -88 17 -92 5 -5 28 -3 53 2 32 8 60 7
            97 -1 29 -6 56 -12 60 -12 8 -1 15 51 48 320 8 67 17 127 20 132 8 14 35 248
            35 313 0 104 -42 160 -150 198 -63 22 -69 22 -138 0z"
            style="opacity:1;fill:#000000;fill-opacity:1;fill-rule:nonzero;stroke:none;stroke-width:3.18300009;stroke-miterlimit:4;stroke-dasharray:none;stroke-opacity:1"
        />

        <!-- Question mark: lower part (dot) -->
        <path 
            d="M2335 2488 c-97 -34 -126 -167 -48 -227 61 -49 130 -47 185 6 75 71
            51 171 -50 214 -49 21 -46 21 -87 7z"
            style="opacity:1;fill:#000000;fill-opacity:1;fill-rule:nonzero;stroke:none;stroke-width:3.18300009;stroke-miterlimit:4;stroke-dasharray:none;stroke-opacity:1"
        />

    </g>
</svg>
