<?xml version="1.0" encoding="UTF-8" standalone="no"?>
<!-- Created with Inkscape (http://www.inkscape.org/) -->
<!-- Source: https://freesvg.org/user-reject -->
<!-- Note: this svg has been modified from the original -->

<svg
   xmlns:dc="http://purl.org/dc/elements/1.1/"
   xmlns:cc="http://creativecommons.org/ns#"
   xmlns:rdf="http://www.w3.org/1999/02/22-rdf-syntax-ns#"
   xmlns:svg="http://www.w3.org/2000/svg"
   xmlns="http://www.w3.org/2000/svg"
   xmlns:sodipodi="http://sodipodi.sourceforge.net/DTD/sodipodi-0.dtd"
   xmlns:inkscape="http://www.inkscape.org/namespaces/inkscape"
   width="70mm"
   height="70mm"
   viewBox="0 0 248.03149 248.03149"
   id="svg4526"
   version="1.1"
   inkscape:version="0.91 r13725"
   sodipodi:docname="user reject.svg">
  <defs
     id="defs4528" />
  <sodipodi:namedview
     id="base"
     pagecolor="#0d1618"
     bordercolor="#384d4f"
     borderopacity="1.0"
     inkscape:pageopacity="0.0"
     inkscape:pageshadow="2"
     inkscape:zoom="0.7"
     inkscape:cx="-421.32571"
     inkscape:cy="37.84457"
     inkscape:document-units="px"
     inkscape:current-layer="layer1"
     showgrid="false"
     inkscape:window-width="1536"
     inkscape:window-height="801"
     inkscape:window-x="-8"
     inkscape:window-y="-8"
     inkscape:window-maximized="1" />
  <metadata
     id="metadata4531">
    <rdf:RDF>
      <cc:Work
         rdf:about="">
        <dc:format>image/svg+xml</dc:format>
        <dc:type
           rdf:resource="http://purl.org/dc/dcmitype/StillImage" />
        <dc:title></dc:title>
      </cc:Work>
    </rdf:RDF>
  </metadata>
  <g
     inkscape:label="Laag 1"
     inkscape:groupmode="layer"
     id="layer1"
     transform="translate(0,-804.33071)">
    <path
       style="opacity:1;fill:#376073;fill-opacity:1;fill-rule:nonzero;stroke:#376073;stroke-width:0.50507629;stroke-opacity:1"
       d="m 69.280583,1037.0027 c -2.2224,-0.2267 -4.7225,-0.6821 -5.5559,-1.012 -0.8334,-0.3299 -9.3384,-2.8569 -18.9001,-5.6157 -9.5617,-2.7588 -17.4523,-5.0834 -17.5347,-5.1657 -0.2391,-0.2392 2.2788,-42.51158 2.8639,-48.08135 2.2676,-21.58406 6.0483,-32.16101 14.8649,-41.58634 7.5909,-8.11487 14.9224,-11.77177 27.5448,-13.73911 5.5107,-0.85889 39.443297,-1.23111 47.620597,-0.52237 13.0001,1.12673 21.3056,3.10399 29.1231,6.93322 3.9457,1.93271 5.526,3.0883 9.1422,6.68524 9.4197,9.36932 13.7657,22.358 15.8544,47.38281 1.1656,13.96551 2.4884,42.5971 1.9903,43.0793 -0.9176,0.8884 -17.7367,5.5971 -23.3654,6.5414 -20.4406,3.4292 -70.257497,6.467 -83.648097,5.1006 z"
       id="path4293-4"
       inkscape:connector-curvature="0" />
    <ellipse
       style="opacity:1;fill:#376073;fill-opacity:1;fill-rule:nonzero;stroke:#376073;stroke-opacity:1"
       id="path4295-9"
       cx="99.819122"
       cy="877.38922"
       rx="40.658642"
       ry="38.327599" />
    <ellipse
       style="opacity:1;fill:#B3B3B3;fill-opacity:1;fill-rule:nonzero;stroke:#0d1618;stroke-width:7.51900005;stroke-miterlimit:4;stroke-dasharray:none;stroke-opacity:1"
       id="path4344-6"
       cx="170"
       cy="985"
       rx="60"
       ry="60" />
    <path
       id="pathContourMain"
       style="fill:#aa0000;fill-rule:evenodd;stroke:#000000;stroke-width:0.13303943px;"
       transform="scale(1.5) 
                translate(-72 -298)"
       inkscape:connector-curvature="0"
       d="m 186.67956,984.8127 c -1.22438,0.24138 -2.66911,0.52397 -3.64832,0.72772 -1.18644,0.0631 -2.36703,0.12123 -3.50239,-0.24254 -0.94128,-0.42573 -2.26634,-0.85508 -3.50239,-0.9703 -1.58776,-0.51183 -3.08357,-1.18983 -4.37799,-2.18315 -2.00657,-0.94481 -2.71144,-2.76167 -3.94019,-4.24497 -1.52646,-1.62521 -2.73917,-3.4057 -4.30503,-5.03333 -0.68442,-0.75806 -1.71091,-2.30563 -3.13755,-4.06304 -1.22453,-1.48698 -2.7418,-4.1492 -3.13756,-5.15462 -0.34324,-0.62101 -1.2419,-2.44023 -1.82416,-3.57792 -0.61832,-1.02485 -1.63299,-2.57853 -2.33493,-3.51725 -0.64254,-0.85871 -0.58373,-3.04185 -0.58373,-3.88113 0.1703,-1.11098 1.27356,-1.11704 1.53229,-1.15221 0.7895,-0.10427 2.71041,-0.3008 3.42943,0.18193 2.43825,0.64281 3.5358,1.96118 4.66984,3.88112 0.37068,0.61733 1.01862,2.54578 1.60527,3.03212 2.0168,1.59367 2.8384,2.94844 3.57536,3.8205 0.49325,0.71315 1.54251,1.24801 2.26196,1.39476 0.72966,0.28382 1.417,-0.72045 1.7512,-1.0309 0.82452,-0.76414 1.00693,-1.58642 1.02153,-2.547 0.009,-0.56156 0.0496,-1.48334 0.14593,-2.12248 0.18826,-1.24075 0.11383,-2.10795 0.14593,-2.97149 0.0379,-0.99456 -0.72966,-2.23651 -0.72966,-3.45663 -0.30355,-0.92056 -0.1795,-2.98362 -0.14593,-3.75984 0.0496,-1.15949 -0.14593,-3.09883 -0.2189,-4.00241 -0.0671,-0.83445 -0.60854,-2.8975 -0.65671,-4.0024 -0.0555,-1.28078 -0.53556,-3.52091 -0.58373,-4.8514 -0.0306,-0.83081 0.13427,-2.28598 0.21891,-3.03188 0.089,-0.78411 0.15323,-2.15851 0.14593,-3.09277 -0.005,-0.57707 0.48887,-1.50309 1.16747,-1.94056 0.9719,-0.86852 2.92741,-1.39125 4.15909,-0.60643 1.65049,0.99296 1.4856,1.96409 1.82416,2.54699 0.52827,0.9071 0.38964,2.04171 0.51076,2.97149 0.092,0.9596 0.20868,1.88488 0,3.45636 0,0.69132 0.0788,2.19041 0.14593,3.09277 0.0729,0.97998 0.42905,2.92418 0.58373,3.63855 0.23203,1.06973 0.51077,2.95935 0.43781,3.94177 -0.0964,1.30017 0.31521,2.70465 0.43779,3.57791 0.12842,0.91934 0.99235,2.29957 1.7512,2.8502 0.58373,0.42328 1.67823,-0.63917 1.67823,-2.06184 -0.15032,-2.06914 0.37067,-4.41115 0.29187,-5.27591 -0.07,-0.76773 0.0729,-1.65675 0.0729,-1.81928 -0.11821,-0.39174 0,-0.80775 0,-1.21285 0,-0.87811 -0.38526,-2.00484 -0.29186,-3.1534 0.057,-0.70589 -0.0861,-2.62219 -0.14595,-3.63855 0,-2.64195 -0.0817,-1.20437 -0.0729,-2.36481 0.006,-0.76762 0.27729,-2.31679 0.43781,-2.8502 0.0467,-1.24184 0.43196,-2.54214 0.72966,-3.39599 0.47428,-1.09289 1.68699,-2.70368 3.42942,-2.78954 2.41811,0.0969 2.9639,0.91254 3.06459,2.12248 0.0394,0.47483 0.19409,1.98107 0.29187,2.4257 0.0379,0.66404 0.16928,2.20157 0.2189,3.03212 0.0599,0.99563 0.36775,2.45821 0.43781,3.33509 0.0409,0.5094 -0.20869,1.92358 -0.14594,2.91084 -0.27727,1.00667 0.0729,2.45845 0.0729,3.57791 l 0,3.45663 c 0,1.49059 -0.45677,2.76044 -0.14593,4.00241 0.12988,0.52273 0.28165,2.02908 0.94856,2.12248 1.11639,0.15767 2.23716,-1.48211 2.55382,-4.18433 0.1941,-1.71983 0.58375,-3.45421 0.58375,-4.8514 -0.23934,-0.79442 0.61583,-3.24923 0.8756,-4.06306 0.41153,-1.29047 0.62021,-2.78834 1.02152,-3.75984 -0.1868,-1.51556 0.48012,-3.04909 0.72966,-4.54793 0.36484,-1.1083 0.76908,-2.3374 1.7512,-2.66828 0.94857,-0.69302 2.01826,-0.40423 2.62679,-0.18192 1.02154,0.63687 1.39658,1.54578 1.67823,2.48635 0.23203,0.77537 -0.0248,2.14274 -0.14592,2.8502 10e-4,0.97379 0.089,2.16346 0,3.27444 -0.0876,1.09278 -0.43781,2.39902 -0.43781,3.27469 0.0161,1.21043 -0.2189,3.06609 -0.2189,4.48755 -0.32542,1.78532 -0.4378,3.50878 -0.8756,5.2759 -0.30061,1.17646 -1.08427,2.81866 -1.09449,4.1237 0,1.12431 -0.67129,2.58458 1.09449,2.78956 1.02154,1.01515 2.38601,-2.09946 2.99164,-3.03214 0.70193,-1.38507 1.66655,-3.51605 2.04306,-4.48754 0.41591,-0.93996 1.34258,-2.25955 1.67822,-3.15342 0.87852,-1.46148 1.26524,-2.71556 1.60527,-3.69918 0.57935,-0.9618 1.68114,-1.77441 2.48086,-1.87992 1.06968,-0.1407 1.94819,0.59307 2.62679,1.45541 0.43926,0.96786 -0.0584,2.46331 -0.29187,3.88113 -0.4451,1.83989 -1.01861,3.46753 -1.52208,4.52515 -0.36191,0.75802 -1.27545,2.42447 -1.68844,3.42387 -0.48887,0.9824 -1.05364,2.29349 -1.51917,3.01757 -0.51222,0.79441 -1.44326,1.92598 -1.76432,2.98119 -0.45824,1.52454 -0.51077,2.82717 -0.51077,4.00242 0,0.75316 -0.29187,1.42511 -0.29187,2.42568 0.11234,1.24317 -0.47282,2.39782 -0.29186,3.63857 0.0949,0.31414 0.0729,1.25406 -0.0729,2.06183 0.11967,1.1874 -0.56768,2.73619 -0.80262,3.51725 -0.28312,0.93998 -1.02154,3.0479 -1.02154,3.45664 -1.30756,1.99271 -1.43597,3.4178 -2.26196,4.36624 -0.70778,0.75201 -1.43306,1.84841 -2.26196,2.36507 -0.68297,0.42574 -1.41701,0.95334 -2.04306,1.2129 -1.16892,0.53241 -2.48086,1.06241 -4.52392,1.21281 -1.40241,-0.1055 -3.0179,-0.627 -3.94019,-0.7277 -1.38928,-0.54335 -3.0106,-0.90117 -4.52392,-0.97029 z" />
  </g>
</svg>
