<?xml version="1.0" standalone="no"?>
<!DOCTYPE svg PUBLIC "-//W3C//DTD SVG 20010904//EN"
 "http://www.w3.org/TR/2001/REC-SVG-20010904/DTD/svg10.dtd">

<!-- Icon created by bgtti. Github: https://github.com/bgtti -->
<!-- Available at: https://freesvg.org/by/bgtti-->
<!-- License: public domain -->

<svg version="1.0" xmlns="http://www.w3.org/2000/svg"
 width="316.000000pt" height="316.000000pt" viewBox="0 0 316.000000 316.000000"
 preserveAspectRatio="xMidYMid meet">

<g transform="translate(0.000000,316.000000) scale(0.100000,-0.100000)"
fill="#000000" stroke="none">

<!-- Each element of the icon is commented bellow. You may change the fill colour in each one individually -->

<!-- Lupe: -->
<path d="M1092 2949 c-416 -56 -769 -306 -956 -677 -92 -183 -121 -312 -120
-547 0 -164 2 -190 28 -289 68 -265 216 -497 421 -661 28 -22 52 -42 55 -45 5
-5 14 -11 128 -76 314 -180 762 -196 1093 -39 143 68 243 133 327 214 30 28
58 51 63 51 4 0 13 -8 18 -19 6 -10 45 -45 88 -77 43 -33 174 -133 293 -224
396 -304 365 -282 419 -288 61 -6 102 17 155 85 58 75 66 141 23 207 -8 11
-105 91 -217 176 -111 85 -273 209 -360 276 -87 66 -172 127 -189 134 -18 7
-30 18 -27 24 119 259 160 505 120 731 -28 162 -55 248 -116 373 -33 67 -65
122 -69 122 -5 0 -9 4 -9 10 0 34 -179 226 -285 304 -140 105 -337 192 -501
221 -112 20 -287 27 -382 14z m343 -164 c309 -54 592 -257 745 -535 90 -163
132 -334 131 -529 -1 -189 -48 -362 -143 -525 -204 -350 -578 -553 -982 -533
-67 3 -152 13 -191 22 -420 98 -739 433 -814 854 -18 99 -22 283 -8 346 3 11
8 40 12 65 11 66 62 206 102 280 126 232 333 413 580 506 60 23 165 49 228 57
77 10 261 6 340 -8z" fill = "#B3B3B3"/>

<!-- 3 clicks: -->
<path d="M814 2393 c-22 -22 -16 -67 31 -225 38 -127 63 -172 93 -166 24 5 27
69 7 148 -60 229 -89 284 -131 243z" fill = "#B3B3B3"/>
<path d="M440 2154 c0 -33 35 -71 136 -149 140 -108 195 -129 194 -73 -1 33
-32 65 -153 156 -87 66 -114 82 -142 82 -25 0 -35 -4 -35 -16z" fill = "#B3B3B3"/>
<path d="M490 1730 c-100 -5 -143 -20 -138 -48 6 -33 48 -42 193 -42 114 0
146 3 174 18 45 22 49 37 16 58 -29 19 -90 23 -245 14z" fill = "#B3B3B3"/>

<!-- hand: -->
<path d="M1574 1960 c-43 -10 -54 -18 -69 -53 -12 -29 -16 -31 -55 -28 -38 2
-45 -1 -79 -38 -33 -36 -44 -41 -80 -41 -35 0 -47 -6 -72 -32 -16 -18 -29 -36
-29 -41 0 -15 -22 -2 -114 64 -71 50 -95 62 -123 61 -56 -2 -70 -10 -91 -53
-20 -39 -19 -58 2 -109 4 -8 92 -75 196 -148 105 -74 188 -137 185 -141 -2 -4
-23 -8 -46 -9 -69 -3 -113 -20 -137 -51 -56 -76 -14 -121 160 -173 182 -54
222 -61 343 -62 97 -1 114 -4 147 -24 68 -42 80 -34 221 166 143 203 146 214
74 267 -33 24 -43 39 -49 72 -7 44 -45 125 -75 160 -10 12 -29 36 -43 53 -27
33 -179 146 -214 159 -11 4 -35 5 -52 1z" fill = "#B3B3B3"/>

</g>
</svg>
