<?xml version="1.0" standalone="no"?>
<!DOCTYPE svg PUBLIC "-//W3C//DTD SVG 20010904//EN"
 "http://www.w3.org/TR/2001/REC-SVG-20010904/DTD/svg10.dtd">

<!-- Icon created by bgtti. Github: https://github.com/bgtti -->
<!-- Available at: https://freesvg.org/by/bgtti-->
<!-- License: public domain -->
<!-- Ps: modified from original source -->

<svg version="1.0" xmlns="http://www.w3.org/2000/svg"
 width="471.000000pt" height="471.000000pt" viewBox="0 0 471.000000 471.000000"
 preserveAspectRatio="xMidYMid meet">

<g transform="translate(0.000000,471.000000) scale(0.100000,-0.100000)"
fill="#B3B3B3" stroke="none">

<path d="M329 4166 c-103 -28 -199 -111 -247 -214 l-27 -57 0 -1595 0 -1595
32 -66 c39 -80 111 -150 191 -187 l57 -27 2025 0 2025 0 57 27 c80 37 152 107
191 187 l32 66 0 1595 0 1595 -32 66 c-39 80 -111 150 -191 187 l-57 27 -2005
2 c-1568 1 -2015 -1 -2051 -11z m3794 -300 c-4 -8 -109 -134 -233 -282 -124
-147 -299 -355 -389 -463 -998 -1188 -1112 -1322 -1122 -1316 -11 7 -1732
2055 -1737 2067 -2 4 782 8 1743 8 1493 0 1745 -2 1738 -14z m-3013 -859 c391
-466 710 -851 708 -856 -2 -5 -327 -309 -723 -675 -499 -462 -722 -663 -730
-655 -12 12 -15 2993 -3 3022 5 10 14 17 22 15 7 -2 334 -385 726 -851z m3258
-682 c-2 -1008 -6 -1497 -13 -1504 -7 -7 -234 194 -722 642 -638 585 -710 654
-700 672 5 11 31 43 58 70 26 28 68 77 92 110 24 33 59 77 78 98 19 20 48 54
64 74 17 20 42 50 57 65 15 16 31 35 35 42 9 15 72 90 118 141 49 53 70 79 87
105 9 14 36 46 59 71 54 58 75 82 118 139 19 25 40 50 46 55 6 6 18 20 26 32
14 21 53 66 166 191 24 26 43 50 43 55 0 4 15 22 33 40 18 17 46 50 62 72 17
22 66 83 110 135 44 52 89 106 100 119 29 35 69 71 78 71 4 0 6 -673 5 -1495z
m-2243 -526 c93 -111 182 -215 198 -230 48 -49 116 -35 163 32 15 22 31 39 35
39 5 0 9 6 9 13 0 6 19 33 43 58 23 25 54 61 69 80 15 19 41 50 58 69 17 19
46 53 65 74 l34 40 103 -96 c57 -52 360 -330 673 -617 314 -288 572 -527 573
-532 2 -5 -729 -9 -1787 -9 -1094 0 -1791 4 -1791 9 0 5 12 19 28 31 34 27
158 139 232 210 83 80 182 172 295 275 54 50 111 102 127 118 15 15 29 27 31
27 3 0 40 34 198 183 41 40 104 98 140 130 136 124 243 224 277 260 19 20 40
37 46 37 7 0 88 -91 181 -201z"/>
</g>

</svg>
