<?xml version="1.0" standalone="no"?><!DOCTYPE svg PUBLIC "-//W3C//DTD SVG 20010904//EN" "http://www.w3.org/TR/2001/REC-SVG-20010904/DTD/svg10.dtd"><svg version="1.0" xmlns="http://www.w3.org/2000/svg" width="81.000000" height="81.000000" viewBox="0 0 81.000000 81.000000" preserveAspectRatio="xMidYMid meet"><g transform="translate(0.000000,81.000000) scale(0.100000,-0.100000)" fill="#000000" stroke="none"><path d="M400 730 c0 -33 4 -60 10 -60 6 0 10 27 10 60 0 33 -4 60 -10 60 -6 0 -10 -27 -10 -60z"/><path d="M130 672 c0 -14 79 -86 87 -79 4 4 -11 25 -32 47 -38 39 -55 49 -55 32z"/><path d="M635 646 c-20 -19 -36 -39 -33 -46 2 -6 21 7 42 29 49 51 42 64 -9 17z"/><path d="M358 591 c-90 -29 -138 -94 -138 -186 0 -105 69 -182 174 -192 63 -6 125 23 170 80 28 35 31 45 31 112 0 67 -3 76 -31 112 -17 21 -45 46 -61 55 -36 22 -108 31 -145 19z m101 -21 c70 -20 121 -90 121 -165 0 -56 -18 -92 -64 -133 -59 -52 -136 -55 -207 -8 -111 74 -83 265 46 305 41 12 64 13 104 1z"/><path d="M72 412 c-30 -2 -50 -7 -47 -13 8 -12 102 -12 110 0 8 14 -4 16 -63 13z"/><path d="M675 400 c3 -5 30 -10 60 -10 30 0 57 5 60 10 4 6 -18 10 -60 10 -42 0 -64 -4 -60 -10z"/><path d="M170 180 c-53 -55 -42 -67 12 -12 23 23 39 44 35 48 -3 4 -25 -13 -47 -36z"/><path d="M600 209 c0 -19 65 -82 79 -78 7 3 -9 24 -34 49 -27 27 -45 38 -45 29z"/><path d="M400 80 c0 -33 4 -60 10 -60 6 0 10 27 10 60 0 33 -4 60 -10 60 -6 0 -10 -27 -10 -60z"/></g></svg>