<?xml version="1.0" standalone="no"?>
<!DOCTYPE svg PUBLIC "-//W3C//DTD SVG 20010904//EN"
 "http://www.w3.org/TR/2001/REC-SVG-20010904/DTD/svg10.dtd">

<!-- Icon created by bgtti. Github: https://github.com/bgtti -->
<!-- Available at: https://freesvg.org/by/bgtti-->
<!-- License: public domain -->

<svg version="1.0" xmlns="http://www.w3.org/2000/svg"
 width="253.000000pt" height="253.000000pt" viewBox="0 0 253.000000 253.000000"
 preserveAspectRatio="xMidYMid meet">

<g transform="translate(0.000000,253.000000) scale(0.100000,-0.100000)"
fill="#B3B3B3" stroke="none">
<path d="M2365 2219 c-11 -6 -97 -90 -191 -187 l-170 -176 -40 32 c-80 64 -48
62 -898 62 -870 0 -833 3 -911 -75 -78 -77 -75 -48 -75 -845 0 -797 -3 -768
75 -845 77 -78 41 -75 910 -75 869 0 833 -3 910 75 77 77 75 51 75 824 l0 685
209 211 c137 137 212 220 217 238 14 58 -56 106 -111 76z m-515 -434 c15 -8
30 -20 33 -27 4 -11 -840 -874 -866 -886 -5 -2 -84 70 -175 161 -92 90 -177
167 -188 171 -57 18 -106 -40 -83 -97 7 -17 90 -109 184 -206 93 -97 182 -189
195 -206 61 -72 82 -70 146 18 24 34 216 233 424 443 l380 380 0 -597 c0 -442
-3 -605 -12 -624 -26 -57 -2 -55 -823 -55 -821 0 -797 -2 -823 55 -18 40 -16
1401 2 1434 29 52 6 50 819 51 650 0 762 -2 787 -15z"/>
</g>
</svg>
