<?xml version="1.0" standalone="no"?><!DOCTYPE svg PUBLIC "-//W3C//DTD SVG 20010904//EN" "http://www.w3.org/TR/2001/REC-SVG-20010904/DTD/svg10.dtd"><svg version="1.0" xmlns="http://www.w3.org/2000/svg" width="65.000000" height="65.000000" viewBox="0 0 65.000000 65.000000" preserveAspectRatio="xMidYMid meet"><g transform="translate(0.000000,65.000000) scale(0.100000,-0.100000)" fill="#000000" stroke="none"><path d="M285 626 c-91 -29 -158 -85 -197 -165 -19 -37 -23 -63 -23 -136 0 -81 3 -95 30 -144 102 -185 358 -217 499 -61 20 23 36 46 34 51 -2 6 -30 11 -63 13 -78 3 -140 32 -192 89 -77 84 -92 209 -38 306 36 62 26 71 -50 47z m8 -68 c-26 -62 -23 -160 5 -223 44 -96 132 -162 240 -180 l44 -7 -24 -25 c-60 -66 -192 -92 -288 -58 -150 53 -228 242 -157 381 30 58 88 117 137 138 57 25 62 21 43 -26z"/></g></svg>